:SAMPLES-PER-SECOND 30
:FULLY-SPECIFIED
:DEGREES
333
root  45.1956 37.033 12.3269 168.062 51.4178 177.543
RightUpLeg  -0.0919558 0.308282 -1.56512
RightLeg  36.8257 2.20253 1.49498
RightFoot  -24.0912 -0.572546 -3.67442
RightToes  -2.21189e-009 0 -3.6325e-017
Spine  31.5689 -2.55317 8.65806
Spine1  7.15068 1.10399 -5.56119
HEad  -20.9884 0.605926 -18.1371
LeftShoulder1  0.643689 1.52222 -26.204
LeftArm  -15.9679 -6.68296 -30.7588
LeftForeArm  4.20648 -6.18982 -2.5528
LeftHand  -0.0357978 5.04073 4.7451
RightShoulder  0.166375 -2.94613 25.2589
RightArm  13.9488 6.19408 50.6711
RightForeArm  -14.1602 6.85695 8.66207
RightHand  -0.946275 7.76826 -8.684
LeftUpLeg  -15.3522 4.03346 2.32689
LeftLeg  1.24198 -10.0866 0.0117357
LeftFoot  4.99672 1.15584 -8.22078
LeftToes  -4.03379e-008 1.61488e-010 -5.81581e-011
334
root  44.7409 37.396 12.936 168.186 48.8347 177.106
RightUpLeg  -0.378681 -3.30661 -2.72952
RightLeg  34.3262 3.25062 2.13963
RightFoot  -22.0238 -0.547961 -4.25146
RightToes  -2.21189e-009 0 -3.6325e-017
Spine  29.7076 -2.20378 8.882
Spine1  7.75475 1.32608 -5.18788
HEad  -19.8728 -0.495489 -18.9095
LeftShoulder1  0.459123 2.11861 -27.0066
LeftArm  -17.7397 -2.06377 -29.3335
LeftForeArm  -0.369813 -9.57537 -1.82805
LeftHand  -0.0393984 4.97064 4.96158
RightShoulder  0.0524299 -3.31562 26.1172
RightArm  15.0146 5.76963 50.2884
RightForeArm  -11.1715 3.8585 9.10659
RightHand  -0.871926 6.92611 -8.5434
LeftUpLeg  -13.3914 4.47578 2.23916
LeftLeg  -3.11435 2.65366 -0.220536
LeftFoot  2.17516 0.771046 -6.64234
LeftToes  -4.03379e-008 1.61488e-010 -5.81581e-011
335
root  44.3057 37.7467 13.5096 168.326 45.6485 177.052
RightUpLeg  -0.160527 -5.4092 -3.03247
RightLeg  31.6947 2.53614 1.45392
RightFoot  -19.767 -0.431405 -4.04367
RightToes  -2.21189e-009 0 -3.6325e-017
Spine  29.2327 -1.85184 8.29813
Spine1  6.41598 1.01373 -3.61182
HEad  -18.0699 -1.09324 -19.5847
LeftShoulder1  0.273305 2.69223 -27.4597
LeftArm  -19.2807 3.08538 -29.0584
LeftForeArm  -2.74916 -12.4945 -1.40579
LeftHand  -0.0391521 5.06558 6.02534
RightShoulder  0.108923 -3.13943 26.1888
RightArm  14.0555 3.87564 50.3744
RightForeArm  -8.2874 1.56733 8.73753
RightHand  -0.890494 6.62552 -8.91227
LeftUpLeg  -12.3804 4.98375 2.25397
LeftLeg  -2.50597 6.92844 -1.20333
LeftFoot  2.85836 1.1191 -9.11579
LeftToes  -4.03379e-008 1.61488e-010 -5.81581e-011
336
root  43.911 38.1733 13.9875 168.698 41.7529 176.851
RightUpLeg  0.445461 -7.49484 -3.55393
RightLeg  28.0836 1.29405 0.511246
RightFoot  -17.1793 -0.303496 -3.64773
RightToes  -2.21189e-009 0 -3.6325e-017
Spine  27.7766 -1.83152 9.05614
Spine1  6.20937 1.19646 -3.9996
HEad  -15.9 -3.59264 -19.5286
LeftShoulder1  0.286763 2.63025 -26.6483
LeftArm  -19.8768 6.13995 -30.2255
LeftForeArm  -4.11265 -13.388 -1.37443
LeftHand  -0.0776905 4.32002 6.57307
RightShoulder  -0.0394432 -3.59408 27.0881
RightArm  11.4115 1.43695 49.9767
RightForeArm  -6.38385 1.0028 7.53349
RightHand  -0.79331 6.20767 -8.25513
LeftUpLeg  -12.8637 4.08225 1.39342
LeftLeg  2.2833 0.425746 -0.251212
LeftFoot  2.35264 0.859805 -7.28047
LeftToes  -4.03379e-008 1.61488e-010 -5.81581e-011
337
root  43.4648 38.5355 14.316 168.749 37.866 176.137
RightUpLeg  1.03009 -10.0231 -4.99648
RightLeg  24.9649 0.563114 0.0413283
RightFoot  -15.0538 -0.191265 -2.78468
RightToes  -2.21189e-009 0 -3.6325e-017
Spine  25.9741 -1.80043 10.2518
Spine1  6.1472 1.53969 -4.80626
HEad  -13.6144 -6.18081 -19.4826
LeftShoulder1  0.315199 2.54349 -26.7144
LeftArm  -19.506 7.69903 -30.995
LeftForeArm  -3.94963 -13.4122 -1.51697
LeftHand  -0.0636442 4.62845 6.71591
RightShoulder  -0.145304 -3.9076 27.4825
RightArm  9.35153 -1.15741 49.5298
RightForeArm  -7.68594 1.40596 6.64027
RightHand  -0.786972 6.37194 -8.08336
LeftUpLeg  -12.4707 3.08557 0.54233
LeftLeg  6.72458 -7.03929 -1.01086
LeftFoot  0.93364 0.840874 -7.87497
LeftToes  -4.03379e-008 1.61488e-010 -5.81581e-011
338
root  42.9652 38.8465 14.5963 169.068 34.4559 175.643
RightUpLeg  1.46182 -12.5106 -6.42998
RightLeg  22.0579 0.143849 -0.0782502
RightFoot  -12.9704 -0.120667 -2.33003
RightToes  -2.21189e-009 0 -3.6325e-017
Spine  24.6149 -1.48149 11.2081
Spine1  5.35944 1.9662 -4.94651
HEad  -11.1193 -8.34886 -20.4256
LeftShoulder1  0.233646 2.81544 -27.7528
LeftArm  -16.8813 8.48274 -30.9905
LeftForeArm  -4.56337 -12.3018 -2.20198
LeftHand  -0.0901478 4.19973 7.11643
RightShoulder  -0.102939 -3.78966 26.6767
RightArm  8.4997 -4.0073 49.2604
RightForeArm  -9.21356 2.78973 6.2898
RightHand  -0.767933 5.74726 -8.30656
LeftUpLeg  -11.812 0.39518 0.257883
LeftLeg  11.2507 -10.2803 -1.752
LeftFoot  -0.398289 0.807693 -8.39121
LeftToes  -4.03379e-008 1.61488e-010 -5.81581e-011
339
root  42.429 39.0937 14.848 170.219 31.7167 175.458
RightUpLeg  1.1215 -13.986 -7.43549
RightLeg  19.2686 -0.950357 0.116656
RightFoot  -10.9153 -0.0676206 -1.74095
RightToes  -2.21189e-009 0 -3.6325e-017
Spine  22.4652 -1.13003 13.2055
Spine1  5.1373 2.97452 -6.8373
HEad  -8.3996 -10.8337 -21.2028
LeftShoulder1  0.204273 2.89001 -27.1709
LeftArm  -15.9654 9.99751 -32.6935
LeftForeArm  -2.55125 -11.6293 -2.45089
LeftHand  -0.0539727 4.67077 5.80771
RightShoulder  -0.133641 -3.88101 26.7292
RightArm  9.48126 -5.42174 48.2032
RightForeArm  -8.94674 4.21537 6.58333
RightHand  -0.719229 5.20065 -8.17567
LeftUpLeg  -11.5527 -1.70463 0.916679
LeftLeg  15.4979 -9.18987 -2.54082
LeftFoot  -1.25453 0.690379 -7.7207
LeftToes  -4.03379e-008 1.61488e-010 -5.81581e-011
